<svg width="200" height="200" viewBox="0 0 200 200" fill="none" xmlns="http://www.w3.org/2000/svg">
<path d="M36.8875 170.006L22.85 12.5H177.15L163.094 169.981L99.9062 187.5L36.8875 170.006Z" fill="#1E1E1E"/>
<path d="M100 174.113L151.063 159.956L163.075 25.3813H100V174.113Z" fill="#1E1E1E"/>
<path d="M100 82.4438H125.563L127.325 62.6625H100V43.3438H100.069H148.438L147.975 48.525L143.231 101.763H100V82.4438Z" fill="white"/>
<path d="M100.119 132.612L100.031 132.637L78.5188 126.825L77.1438 111.419H66.6875H57.75L60.4563 141.75L100.025 152.737L100.119 152.712V132.612Z" fill="#EBEBEB"/>
<path d="M123.919 100.944L121.594 126.813L100.05 132.625V152.725L139.65 141.75L139.944 138.488L143.3 100.944H123.919Z" fill="white"/>
<path d="M100.069 43.3438V55.3437V62.6125V62.6625H53.4687H53.4062L53.0187 58.3188L52.1375 48.525L51.675 43.3438H100.069Z" fill="#EBEBEB"/>
<path d="M100 82.4438V94.4438V101.713V101.763H78.8188H78.7563L78.3687 97.4188L77.4938 87.6251L77.0312 82.4438H100Z" fill="#EBEBEB"/>
</svg>
