<svg width="200" height="200" viewBox="0 0 200 200" fill="none" xmlns="http://www.w3.org/2000/svg">
<g clip-path="url(#clip0_53_9)">
<path d="M196.228 91.0887L108.905 3.77223C103.88 -1.25741 95.7233 -1.25741 90.6915 3.77223L72.5589 21.9048L95.5609 44.9069C100.907 43.1008 107.036 44.3122 111.297 48.5738C115.579 52.8617 116.781 59.0434 114.931 64.4066L137.099 86.5747C142.463 84.727 148.651 85.923 152.934 90.2131C158.921 96.1973 158.921 105.897 152.934 111.885C146.946 117.874 137.246 117.874 131.256 111.885C126.753 107.378 125.64 100.764 127.92 95.2164L107.246 74.5427L107.244 128.947C108.703 129.671 110.081 130.635 111.297 131.846C117.284 137.83 117.284 147.529 111.297 153.522C105.309 159.509 95.6048 159.509 89.625 153.522C83.6386 147.529 83.6386 137.83 89.625 131.846C91.104 130.369 92.8157 129.252 94.6415 128.502V73.5903C92.8157 72.8442 91.1062 71.7338 89.625 70.246C85.0891 65.7167 83.9985 59.061 86.3224 53.4915L63.6495 30.8142L3.77442 90.6849C-1.25742 95.7189 -1.25742 103.876 3.77442 108.905L91.0975 196.224C96.1249 201.254 104.279 201.254 109.313 196.224L196.228 109.311C201.258 104.279 201.258 96.1183 196.228 91.0887Z" fill="#1E1E1E"/>
</g>
<defs>
<clipPath id="clip0_53_9">
<rect width="200" height="200" fill="white"/>
</clipPath>
</defs>
</svg>
