<svg width="200" height="200" viewBox="0 0 200 200" fill="none" xmlns="http://www.w3.org/2000/svg">
<path d="M36.8875 170.006L22.8438 12.5H177.156L163.094 169.981L99.9062 187.5L36.8875 170.006Z" fill="#231F20"/>
<path d="M100 174.113L151.063 159.956L163.075 25.3813H100V174.113Z" fill="#1E1E1E"/>
<path d="M100 83.7938H74.4375L72.675 64.0126H100V44.6938H99.9313H51.5625L52.025 49.8813L56.7688 103.113H100V83.7938Z" fill="#F3F2EF"/>
<path d="M100 133.962L99.9125 133.987L78.4 128.181L77.025 112.775H66.5688H57.6312L60.3375 143.1L99.9125 154.087L100 154.062V133.962Z" fill="#F3F2EF"/>
<path d="M99.9313 83.7939V103.113H123.719L121.481 128.169L99.9313 133.981V154.081L139.538 143.1L139.825 139.838L144.362 88.9815L144.837 83.7939H139.631H99.9313Z" fill="white"/>
<path d="M99.9313 44.6938V56.6938V63.9688V64.0126H146.531H146.594L146.981 59.6751L147.863 49.8813L148.325 44.6938H99.9313Z" fill="white"/>
</svg>
