<svg width="200" height="200" viewBox="0 0 200 200" fill="none" xmlns="http://www.w3.org/2000/svg">
<g clip-path="url(#clip0_7_494)">
<path d="M170 0H30C13.4315 0 0 13.4315 0 30V170C0 186.569 13.4315 200 30 200H170C186.569 200 200 186.569 200 170V30C200 13.4315 186.569 0 170 0Z" fill="#1E1E1E"/>
<path d="M126.562 144.531C130.469 151.172 135.938 155.859 144.922 155.859C152.734 155.859 157.812 151.953 157.812 146.484C157.812 140.234 152.734 137.891 144.141 133.984L139.453 132.031C125.781 126.172 116.797 119.141 116.797 103.906C116.797 89.8438 127.344 78.9062 144.141 78.9062C156.25 78.9062 164.844 83.2031 170.703 94.1406L156.25 103.516C153.125 97.6562 149.609 95.3125 144.141 95.3125C138.672 95.3125 135.156 98.8281 135.156 103.516C135.156 108.984 138.672 111.328 146.875 114.844L151.562 116.797C167.578 123.828 176.562 130.469 176.562 146.484C176.562 163.281 163.281 172.656 145.312 172.656C127.734 172.656 116.406 164.453 110.938 153.516L126.562 144.531ZM60.1562 146.094C63.2812 151.172 65.625 155.859 72.2656 155.859C78.5156 155.859 82.4219 153.516 82.4219 144.141V79.2969H101.172V143.359C101.172 162.891 89.8438 171.484 73.0469 171.484C57.8125 171.484 49.2188 163.672 44.9219 154.297L60.1562 146.094Z" fill="#F3F2EF"/>
</g>
<defs>
<clipPath id="clip0_7_494">
<rect width="200" height="200" fill="white"/>
</clipPath>
</defs>
</svg>
