<svg width="200" height="200" viewBox="0 0 200 200" fill="none" xmlns="http://www.w3.org/2000/svg">
<path d="M176.205 47.3968L107.303 7.38896C102.958 4.91396 97.3 4.91396 92.9203 7.38896L23.2828 47.3968C18.7984 49.9765 15.625 54.8249 15.625 60.0108V139.92C15.625 145.106 18.8813 149.956 23.3656 152.55L41.7641 163C50.5578 167.331 53.6656 167.331 57.6672 167.331C70.6875 167.331 78.125 159.458 78.125 145.725V66.8343C78.125 65.7202 77.5453 64.0624 76.4516 64.0624H67.6656C66.5531 64.0624 64.0625 65.7202 64.0625 66.8327V145.723C64.0625 151.811 58.5562 157.869 48.2656 152.723L29.2547 141.766C28.5922 141.406 28.125 140.683 28.125 139.92V60.0108C28.125 59.2577 28.9922 58.5015 29.6594 58.1155L99.0719 18.1765C99.7203 17.8093 100.673 17.8093 101.32 18.1765L169.886 58.1062C170.542 58.5015 170.311 59.2343 170.311 60.0108V139.92C170.311 140.683 170.597 141.425 169.948 141.792L101.064 181.755C100.473 182.109 99.7406 182.109 99.0937 181.755L81.4266 171.209C80.8937 170.9 80.2609 170.789 79.75 171.075C74.8344 173.861 73.9281 174.231 69.3172 175.83C68.1828 176.225 66.5094 176.911 69.9578 178.844L93.0797 192.522C95.2937 193.803 97.8094 194.469 100.341 194.469C102.906 194.469 105.419 193.803 107.633 192.522L176.203 152.55C180.687 149.937 182.812 145.106 182.812 139.92V60.0108C182.812 54.8249 180.688 49.989 176.205 47.3968ZM121.734 127.258C103.413 127.258 99.3766 122.203 98.0313 113.092C97.875 112.111 97.0422 110.937 96.0437 110.937H87.0891C85.9812 110.937 85.0906 112.281 85.0906 113.384C85.0906 125.05 91.4328 139.184 121.736 139.184C143.672 139.184 156.248 130.661 156.248 115.576C156.248 100.62 146.144 96.6952 124.87 93.8796C103.367 91.0374 101.183 89.6015 101.183 84.564C101.183 80.4108 103.033 74.8718 118.955 74.8718C133.181 74.8718 138.425 77.9249 140.583 87.514C140.767 88.4155 141.591 89.0624 142.52 89.0624H151.511C152.064 89.0624 152.592 88.839 152.98 88.4437C153.355 88.0187 153.553 87.4858 153.503 86.914C152.111 70.4015 141.141 62.7062 118.953 62.7062C99.2172 62.7062 87.4438 71.0405 87.4438 85.0108C87.4438 100.164 99.1578 104.351 118.103 106.225C140.767 108.447 142.53 111.759 142.53 116.217C142.53 123.959 136.314 127.258 121.734 127.258Z" fill="#1E1E1E"/>
</svg>
